Genre: Action | Adventure | Thriller
IMDB rating: 7.0/10   (25,244 votes)
Directed by: Terence Young
Starring: Sean Connery, Claudine Auger, Adolfo Celi


Storyline
James Bond continues on his fourth mission, with his aim to recover two stolen warheads. They have been taken by the evil SPECTRE organisation. The world is held hostage and Bond heads to Nassau. Here, he meets the beautiful Domino and is forced into a thrilling confrontation with SPECTRE agent Emilio Largo, on board his boat, the Disco Volante. Will 007 prevent the killing of millions of innocent victims? Written by simon_hrdng   


General
Complete name                    : James.Bond.007.Thunderball.1965.720p.BluRay.x264-HANGOVER.mkv
Format                           : Matroska
File size                        : 6.56 GiB
Duration                         : 2h 10mn
Overall bit rate                 : 7 206 Kbps
Encoded date                     : UTC 2008-10-16 11:13:04
Writing application              : mkvmerge v2.3.0 ('Freak U') built on Sep  8 2008 18:32:16
Writing library                  : libebml v0.7.7 + libmatroska v0.8.1

Video
ID                               : 1
Format                           : AVC
Format/Info                      : Advanced Video Codec
Format profile                   : High@L3.1
Format settings, CABAC           : Yes
Format settings, ReFrames        : 5 frames
Muxing mode                      : Container profile=Unknown@3.1
Codec ID                         : V_MPEG4/ISO/AVC
Duration                         : 2h 10mn
Bit rate                         : 5 552 Kbps
Nominal bit rate                 : 5 692 Kbps
Width                            : 1 280 pixels
Height                           : 544 pixels
Display aspect ratio             : 2.35:1
Frame rate                       : 23.976 fps
Resolution                       : 24 bits
Colorimetry                      : 4:2:0
Scan type                        : Progressive
Bits/(Pixel*Frame)               : 0.333
Stream size                      : 5.05 GiB (77%)
Writing library                  : x264 core 65 r998M 6768543
Language                         : English

Audio
ID                               : 2
Format                           : DTS
Format/Info                      : Digital Theater Systems
Codec ID                         : A_DTS
Duration                         : 2h 10mn
Bit rate mode                    : Constant
Bit rate                         : 1 510 Kbps
Channel(s)                       : 6 channels
Channel positions                : Front: L C R, Surround: L R, LFE
Sampling rate                    : 48.0 KHz
Resolution                       : 24 bits
Stream size                      : 1.38 GiB (21%)
Language                         : English

 
http://www.imagebam.com/image/a9196e118109128
 
http://www.imagebam.com/image/986fa0118109119
 
http://www.imagebam.com/image/dabee7118109114